<?xml version="1.0" encoding="utf-8"?>
<!-- Generator: Adobe Illustrator 21.0.0, SVG Export Plug-In . SVG Version: 6.00 Build 0)  -->
<svg version="1.1" id="Layer_1" xmlns="http://www.w3.org/2000/svg" xmlns:xlink="http://www.w3.org/1999/xlink" x="0px" y="0px"
	 viewBox="0 0 160 35" style="enable-background:new 0 0 160 35;" xml:space="preserve">
<style type="text/css">
	.st0{fill:none;}
	.st1{fill:#09BDD4;}
</style>
<g>
	<g>
		<path class="st0" d="M25.1,18.5c-0.9,0.7-2.1,1-3.6,1c0,0.3,0,0.7,0,1.1h3c1.1,0,2-0.2,2.5-0.6c0.6-0.4,0.8-0.9,0.8-1.7
			c0-0.7-0.3-1.3-0.8-1.7c-0.2-0.2-0.4-0.3-0.7-0.4C26.2,17.2,25.8,18,25.1,18.5z"/>
		<path class="st0" d="M24.3,14.6c-0.1-0.4-0.4-0.7-0.7-0.9c-0.6-0.4-1.5-0.6-2.7-0.6h-3.5v5c0.7,0,1.3,0,1.8,0c0.1,0,0.2,0,0.4,0
			v-3.4H24.3z"/>
		<path class="st0" d="M24.4,16.1h-3c0,0.7,0,1.4,0,1.9c0.9,0,1.6-0.3,2.2-0.6C24.1,17.1,24.3,16.7,24.4,16.1z"/>
		<path class="st0" d="M22.9,11c0.6-0.4,0.8-0.9,0.8-1.7c0-0.7-0.3-1.3-0.8-1.7C22.5,7.2,21.8,7,20.9,7h-3.4c0,0.9,0,1.7,0,2.3
			c0,0.6,0,1.4,0,2.3h3C21.5,11.6,22.4,11.4,22.9,11z"/>
		<path class="st0" d="M27.6,22.8c-0.6-0.4-1.5-0.6-2.7-0.6h-3.5v5c0.7,0,1.3,0,1.8,0c0.5,0,1.1,0,1.8,0c1.1,0,2-0.2,2.5-0.6
			c0.6-0.4,0.9-1,0.9-1.9C28.5,23.8,28.2,23.2,27.6,22.8z"/>
		<path d="M24.4,16.1c-0.1,0.5-0.4,0.9-0.8,1.3c-0.5,0.4-1.2,0.6-2.2,0.6c0,0.1,0,0.3,0,0.4c0,0.3,0,0.7,0,1.2c1.5,0,2.7-0.4,3.6-1
			c0.7-0.6,1.1-1.3,1.3-2.2c-0.4-0.1-0.9-0.2-1.4-0.2H24.4z"/>
		<path d="M19.3,18c-0.5,0-1.1,0-1.8,0v-5h3.5c1.2,0,2.1,0.2,2.7,0.6c0.3,0.2,0.6,0.5,0.7,0.9h1c0.3,0,0.7,0,1,0.1
			c-0.1-0.5-0.4-1-0.8-1.3c-0.6-0.6-1.4-1-2.4-1.1V12c0.7-0.1,1.3-0.5,1.8-1.1c0.5-0.6,0.7-1.2,0.7-2c0-1.1-0.4-1.9-1.2-2.6
			c-0.8-0.6-1.8-0.9-3.2-0.9h-5.7v14.1c0.8,0,1.5,0,2,0c0.6,0,1.1,0,1.7,0c0.1,0,0.2,0,0.3,0V18C19.5,18,19.4,18,19.3,18z M17.5,9.3
			c0-0.6,0-1.4,0-2.3h3.4c0.9,0,1.6,0.2,2.1,0.6c0.5,0.4,0.8,1,0.8,1.7c0,0.7-0.3,1.3-0.8,1.7c-0.6,0.4-1.4,0.6-2.5,0.6h-3
			C17.5,10.6,17.5,9.9,17.5,9.3z"/>
		<path class="st1" d="M24.4,16.1c0-0.2,0.1-0.4,0.1-0.6c0-0.4-0.1-0.7-0.2-1h-4.7V18c0.4,0,0.9,0,1.5,0c0.1,0,0.3,0,0.4,0
			c0-0.5,0-1.2,0-1.9H24.4z"/>
		<path class="st1" d="M29.5,22.4c-0.6-0.6-1.4-1-2.4-1.1v-0.2c0.7-0.1,1.3-0.5,1.8-1.1c0.5-0.6,0.7-1.2,0.7-2
			c0-1.1-0.4-1.9-1.2-2.6c-0.6-0.5-1.3-0.8-2.2-0.9c0.1,0.3,0.1,0.6,0.1,1c0,0.3,0,0.5-0.1,0.7c0.3,0.1,0.5,0.2,0.7,0.4
			c0.5,0.4,0.8,1,0.8,1.7c0,0.7-0.3,1.3-0.8,1.7c-0.6,0.4-1.4,0.6-2.5,0.6h-3c0-0.4,0-0.7,0-1.1c0,0-0.1,0-0.1,0c-0.7,0-1.2,0-1.7,0
			v9.1c0.8,0,1.5,0,2,0c0.6,0,1.1,0,1.7,0c0.6,0,1.2,0,2,0c1.6,0,2.8-0.4,3.7-1.1c0.9-0.7,1.3-1.7,1.3-2.9
			C30.4,23.8,30.1,23,29.5,22.4z M27.7,26.5c-0.6,0.4-1.4,0.6-2.5,0.6c-0.7,0-1.3,0-1.8,0c-0.5,0-1.1,0-1.8,0v-5H25
			c1.2,0,2.1,0.2,2.7,0.6c0.6,0.4,0.9,1,0.9,1.8C28.5,25.5,28.2,26.1,27.7,26.5z"/>
		<path class="st1" d="M24.3,14.6c0.1,0.3,0.2,0.6,0.2,1c0,0.2,0,0.4-0.1,0.6h0.5c0.5,0,1,0.1,1.4,0.2c0-0.2,0.1-0.5,0.1-0.7
			c0-0.3,0-0.7-0.1-1c-0.3,0-0.6-0.1-1-0.1H24.3z"/>
		<path d="M21.5,19.6c0-0.4,0-0.8,0-1.2c0-0.1,0-0.2,0-0.4c-0.1,0-0.2,0-0.4,0c-0.6,0-1.1,0-1.5,0v1.6
			C20.2,19.6,20.7,19.6,21.5,19.6C21.4,19.6,21.5,19.6,21.5,19.6z"/>
	</g>
	<g>
		<path class="st0" d="M8.7,17.6h13.8V3.7C14.9,3.7,8.7,9.9,8.7,17.6z"/>
		<path class="st0" d="M22.6,31.4c7.6,0,13.8-6.2,13.8-13.8H22.6V31.4z"/>
		<path class="st0" d="M8.7,17.6c0,7.6,6.2,13.8,13.8,13.8V17.6H8.7z"/>
		<path class="st0" d="M36.4,17.6c0-7.6-6.2-13.8-13.8-13.8v13.8H36.4z"/>
		<path d="M22.6,1.3v2.4c7.6,0,13.8,6.2,13.8,13.8h2.4C38.8,8.6,31.6,1.3,22.6,1.3z"/>
		<path class="st1" d="M22.6,3.7V1.3c-9,0-16.3,7.3-16.3,16.3h2.4C8.7,9.9,14.9,3.7,22.6,3.7z"/>
		<path d="M8.7,17.6H6.3c0,9,7.3,16.3,16.3,16.3v-2.4C14.9,31.4,8.7,25.2,8.7,17.6z"/>
		<path class="st1" d="M22.6,31.4v2.4c9,0,16.3-7.3,16.3-16.3h-2.4C36.4,25.2,30.2,31.4,22.6,31.4z"/>
	</g>
</g>
<g>
	<path class="st1" d="M49,14.8c-0.5,0-1,0-1.4,0c-0.4,0-0.8,0-1.2,0c-0.4,0-0.9,0-1.4,0V4.5h4c1,0,1.7,0.2,2.2,0.7s0.8,1.1,0.8,1.9
		c0,0.5-0.2,1-0.5,1.4c-0.3,0.4-0.8,0.7-1.3,0.8v0.1c0.7,0.1,1.3,0.4,1.7,0.8s0.6,1,0.6,1.7c0,0.9-0.3,1.6-0.9,2.1
		C50.9,14.5,50.1,14.8,49,14.8z M46.2,5.6c0,0.7,0,1.2,0,1.7s0,1,0,1.7h2.1c0.8,0,1.4-0.1,1.8-0.4c0.4-0.3,0.6-0.7,0.6-1.2
		c0-0.5-0.2-0.9-0.5-1.2s-0.9-0.4-1.5-0.4H46.2z M46.2,13.7c0.5,0,0.9,0,1.3,0c0.3,0,0.8,0,1.3,0c0.8,0,1.4-0.2,1.8-0.5
		s0.6-0.8,0.6-1.4c0-0.6-0.2-1-0.6-1.4c-0.4-0.3-1-0.5-1.9-0.5h-2.4V13.7z"/>
	<path class="st1" d="M56.5,14.8c-0.3,0-0.5,0-0.6,0s-0.4,0-0.6,0V4.5h1.3V14.8z"/>
	<path class="st1" d="M66,13.6c0,0.2,0,0.4,0,0.6c0,0.2,0,0.3,0,0.6h-6.3V4.5H61v9.2H66z"/>
	<path class="st1" d="M74.9,13.6c0,0.2,0,0.4,0,0.6c0,0.2,0,0.3,0,0.6h-6.3V4.5h1.3v9.2H74.9z"/>
	<path class="st1" d="M86.3,14.8c-0.5,0-1,0-1.4,0c-0.4,0-0.8,0-1.2,0c-0.4,0-0.9,0-1.4,0V4.5h4c1,0,1.7,0.2,2.2,0.7
		C89,5.6,89.3,6.2,89.3,7c0,0.5-0.2,1-0.5,1.4c-0.3,0.4-0.8,0.7-1.3,0.8v0.1c0.7,0.1,1.3,0.4,1.7,0.8c0.4,0.5,0.6,1,0.6,1.7
		c0,0.9-0.3,1.6-0.9,2.1C88.2,14.5,87.4,14.8,86.3,14.8z M83.5,5.6c0,0.7,0,1.2,0,1.7s0,1,0,1.7h2.1c0.8,0,1.4-0.1,1.8-0.4
		C87.8,8.2,88,7.8,88,7.3c0-0.5-0.2-0.9-0.5-1.2c-0.4-0.3-0.9-0.4-1.5-0.4H83.5z M83.5,13.7c0.5,0,0.9,0,1.3,0c0.3,0,0.8,0,1.3,0
		c0.8,0,1.4-0.2,1.8-0.5c0.4-0.3,0.6-0.8,0.6-1.4c0-0.6-0.2-1-0.6-1.4S86.8,10,86,10h-2.4V13.7z"/>
	<path class="st1" d="M93.8,10.7c0,0.8,0,1.5,0,2c0,0.5,0,1.2,0,2h-1.3V4.5h3.9c1,0,1.8,0.3,2.4,0.8c0.6,0.6,0.9,1.3,0.9,2.2
		c0,0.7-0.2,1.3-0.6,1.9c-0.4,0.5-0.9,0.9-1.5,1.1l2.4,4.3h-1.5l-2.2-4.1H93.8z M93.8,5.6c0,0.5,0,1,0,1.4s0,0.8,0,1.2s0,0.9,0,1.4
		h2.5c0.7,0,1.2-0.2,1.5-0.5c0.4-0.3,0.5-0.8,0.5-1.5c0-0.6-0.2-1.1-0.6-1.5s-0.9-0.5-1.6-0.5H93.8z"/>
	<path class="st1" d="M109.4,14.8c-0.2-0.6-0.4-1.1-0.5-1.5c-0.1-0.4-0.3-0.9-0.5-1.5h-4.1l-1,3h-1.4l3.8-10.3h1.3l3.8,10.3H109.4z
		 M106.2,6.1c-0.2,0.6-0.4,1.2-0.6,1.6s-0.3,0.9-0.5,1.4c-0.2,0.5-0.4,1-0.6,1.6h3.4l-1.6-4.6H106.2z"/>
	<path class="st1" d="M112.6,12.1c0.3,0,0.5,0,0.7,0s0.4,0,0.7,0c0.1,0.5,0.4,1,0.8,1.3c0.5,0.3,1.1,0.5,1.8,0.5
		c0.7,0,1.3-0.2,1.7-0.5c0.5-0.3,0.7-0.8,0.7-1.3c0-0.4-0.2-0.8-0.5-1.1c-0.3-0.3-0.9-0.5-1.6-0.7l-1.3-0.3c-0.9-0.2-1.6-0.6-2-1
		c-0.4-0.4-0.6-1-0.6-1.8c0-0.9,0.3-1.6,1-2.1c0.7-0.5,1.6-0.8,2.6-0.8c1,0,1.8,0.3,2.5,0.8c0.7,0.5,1,1.2,1.1,2.1h-1.3
		c-0.1-0.5-0.3-0.9-0.8-1.2c-0.4-0.3-0.9-0.4-1.6-0.4c-0.7,0-1.2,0.2-1.7,0.5s-0.6,0.7-0.6,1.3c0,0.4,0.2,0.7,0.5,1
		c0.3,0.3,0.8,0.5,1.5,0.7l1.1,0.3c1.1,0.3,1.8,0.6,2.3,1.1c0.5,0.4,0.7,1.1,0.7,1.8c0,1-0.3,1.7-1,2.3c-0.7,0.6-1.6,0.8-2.8,0.8
		c-1.1,0-2-0.3-2.7-0.8C113.1,13.7,112.7,13,112.6,12.1z"/>
	<path class="st1" d="M131.3,14.8c-0.3,0-0.5,0-0.6,0c-0.2,0-0.4,0-0.6,0v-4.7h-5.7v4.7h-1.3V4.5h1.3v4.5h5.7V4.5h1.3V14.8z"/>
	<path class="st1" d="M140.9,13.6c0,0.2,0,0.4,0,0.6c0,0.2,0,0.3,0,0.6h-6.4V4.5h6.4v1.2h-5.1v3.3h4.9v1.1h-4.9v3.6H140.9z"/>
	<path class="st1" d="M145.2,10.7c0,0.8,0,1.5,0,2c0,0.5,0,1.2,0,2h-1.3V4.5h3.9c1,0,1.8,0.3,2.4,0.8c0.6,0.6,0.9,1.3,0.9,2.2
		c0,0.7-0.2,1.3-0.6,1.9c-0.4,0.5-0.9,0.9-1.5,1.1l2.4,4.3h-1.5l-2.2-4.1H145.2z M145.2,5.6c0,0.5,0,1,0,1.4s0,0.8,0,1.2
		s0,0.9,0,1.4h2.5c0.7,0,1.2-0.2,1.5-0.5c0.4-0.3,0.5-0.8,0.5-1.5c0-0.6-0.2-1.1-0.6-1.5s-0.9-0.5-1.6-0.5H145.2z"/>
	<path d="M54.5,20.7c-0.3,1-0.5,1.9-0.8,2.7s-0.4,1.5-0.6,2.3s-0.5,1.7-0.8,2.7h-1.3l-1.7-6h-0.1l-1.7,6h-1.2l-2.2-7.7h1.2l1.5,6.2
		H47l1.7-6.2h1.2l1.7,6.2h0.1l1.5-6.2H54.5z"/>
	<path d="M61.8,26.4c0.2,0,0.5,0,0.6,0c0.2,0,0.4,0,0.6,0c-0.2,0.7-0.6,1.2-1.1,1.6c-0.6,0.4-1.3,0.6-2.1,0.6
		c-1.1,0-1.9-0.4-2.5-1.1c-0.6-0.7-0.9-1.7-0.9-2.9c0-1.2,0.3-2.2,0.9-2.9s1.5-1.1,2.5-1.1c1,0,1.9,0.3,2.5,1s0.9,1.6,0.9,2.8v0.5
		h-5.6V25c0,0.8,0.2,1.4,0.6,1.8c0.4,0.4,0.9,0.7,1.6,0.7c0.5,0,0.9-0.1,1.2-0.3C61.4,27,61.7,26.8,61.8,26.4z M58.3,22.3
		c-0.4,0.4-0.6,1-0.7,1.6h4.3c0-0.7-0.2-1.2-0.6-1.6c-0.4-0.4-0.9-0.6-1.5-0.6C59.2,21.7,58.7,21.9,58.3,22.3z"/>
	<path d="M68.1,28.2c-0.4-0.2-0.8-0.6-1-1h-0.1v1.2h-1.2V17.7H67v4.3h0.1c0.2-0.4,0.5-0.7,1-1c0.4-0.2,0.9-0.4,1.5-0.4
		c1,0,1.8,0.4,2.4,1.1c0.6,0.7,0.9,1.7,0.9,2.9c0,1.2-0.3,2.2-0.9,2.9c-0.6,0.7-1.4,1.1-2.4,1.1C69,28.6,68.5,28.5,68.1,28.2z
		 M67.6,22.5C67.2,23,67,23.7,67,24.6c0,0.9,0.2,1.6,0.6,2.1s1,0.8,1.7,0.8c0.7,0,1.3-0.3,1.7-0.8c0.4-0.5,0.6-1.2,0.6-2.1
		c0-0.9-0.2-1.6-0.6-2.1c-0.4-0.5-0.9-0.8-1.7-0.8C68.5,21.7,68,22,67.6,22.5z"/>
	<path d="M80.5,27.5c-0.6-0.7-0.9-1.7-0.9-2.9c0-1.2,0.3-2.2,0.9-2.9c0.6-0.7,1.4-1.1,2.4-1.1c0.5,0,1,0.1,1.5,0.4
		c0.4,0.2,0.8,0.6,1,1h0.1v-4.3h1.2v10.8h-1.2v-1.2h-0.1c-0.2,0.4-0.6,0.8-1,1s-0.9,0.4-1.5,0.4C81.9,28.6,81.1,28.2,80.5,27.5z
		 M81.5,22.5c-0.4,0.5-0.6,1.2-0.6,2.1c0,0.9,0.2,1.6,0.6,2.1c0.4,0.5,1,0.8,1.7,0.8c0.7,0,1.3-0.3,1.7-0.8c0.4-0.5,0.6-1.2,0.6-2.1
		c0-0.9-0.2-1.6-0.6-2.1c-0.4-0.5-1-0.8-1.7-0.8C82.5,21.7,81.9,22,81.5,22.5z"/>
	<path d="M94.7,26.4c0.2,0,0.5,0,0.6,0c0.2,0,0.4,0,0.6,0c-0.2,0.7-0.6,1.2-1.1,1.6c-0.6,0.4-1.3,0.6-2.1,0.6
		c-1.1,0-1.9-0.4-2.5-1.1s-0.9-1.7-0.9-2.9c0-1.2,0.3-2.2,0.9-2.9c0.6-0.7,1.5-1.1,2.5-1.1c1,0,1.9,0.3,2.5,1
		c0.6,0.7,0.9,1.6,0.9,2.8v0.5h-5.6V25c0,0.8,0.2,1.4,0.6,1.8c0.4,0.4,0.9,0.7,1.6,0.7c0.5,0,0.9-0.1,1.2-0.3
		C94.3,27,94.6,26.8,94.7,26.4z M91.2,22.3c-0.4,0.4-0.6,1-0.7,1.6h4.3c0-0.7-0.2-1.2-0.6-1.6c-0.4-0.4-0.9-0.6-1.5-0.6
		C92.1,21.7,91.6,21.9,91.2,22.3z"/>
	<path d="M104.9,20.7c-0.4,1-0.7,1.9-1,2.7c-0.3,0.8-0.6,1.5-0.8,2.3s-0.6,1.7-1,2.7h-1.3l-2.9-7.7h1.3l2.1,6.4h0.1l2.1-6.4H104.9z"
		/>
	<path d="M112.3,26.4c0.2,0,0.5,0,0.6,0c0.2,0,0.4,0,0.6,0c-0.2,0.7-0.6,1.2-1.1,1.6c-0.6,0.4-1.3,0.6-2.1,0.6
		c-1.1,0-1.9-0.4-2.5-1.1s-0.9-1.7-0.9-2.9c0-1.2,0.3-2.2,0.9-2.9c0.6-0.7,1.5-1.1,2.5-1.1c1,0,1.9,0.3,2.5,1
		c0.6,0.7,0.9,1.6,0.9,2.8v0.5H108V25c0,0.8,0.2,1.4,0.6,1.8c0.4,0.4,0.9,0.7,1.6,0.7c0.5,0,0.9-0.1,1.2-0.3
		C111.8,27,112.1,26.8,112.3,26.4z M108.7,22.3c-0.4,0.4-0.6,1-0.7,1.6h4.3c0-0.7-0.2-1.2-0.6-1.6c-0.4-0.4-0.9-0.6-1.5-0.6
		C109.6,21.7,109.1,21.9,108.7,22.3z"/>
	<path d="M116.2,28.4c0-1,0-2,0-2.8s0-1.7,0-2.6s0-1.8,0-2.6s0-1.7,0-2.8h1.2v10.8H116.2z"/>
	<path d="M121,27.5c-0.6-0.7-1-1.7-1-2.9c0-1.2,0.3-2.2,1-2.9c0.6-0.7,1.5-1.1,2.6-1.1c1.1,0,2,0.4,2.6,1.1c0.6,0.7,1,1.7,1,2.9
		c0,1.2-0.3,2.2-1,2.9c-0.6,0.7-1.5,1.1-2.6,1.1C122.5,28.6,121.6,28.2,121,27.5z M125.3,26.7c0.4-0.5,0.6-1.2,0.6-2.1
		c0-0.9-0.2-1.6-0.6-2.1s-1-0.8-1.7-0.8c-0.7,0-1.3,0.3-1.7,0.8s-0.6,1.2-0.6,2.1c0,0.9,0.2,1.6,0.6,2.1c0.4,0.5,1,0.8,1.7,0.8
		C124.3,27.5,124.9,27.2,125.3,26.7z"/>
	<path d="M135.8,21.7c0.6,0.7,0.9,1.7,0.9,2.9c0,1.2-0.3,2.2-0.9,2.9c-0.6,0.7-1.4,1.1-2.4,1.1c-0.5,0-1-0.1-1.5-0.3
		c-0.4-0.2-0.7-0.5-1-1h-0.1V31h-1.2V20.7h1.2V22h0.1c0.2-0.4,0.6-0.8,1-1c0.4-0.3,0.9-0.4,1.4-0.4
		C134.4,20.6,135.2,20.9,135.8,21.7z M134.8,26.7c0.4-0.5,0.6-1.2,0.6-2.1c0-0.9-0.2-1.6-0.6-2.1c-0.4-0.5-1-0.8-1.7-0.8
		c-0.7,0-1.3,0.3-1.7,0.8c-0.4,0.5-0.6,1.2-0.6,2.1c0,0.9,0.2,1.6,0.6,2.1c0.4,0.5,1,0.8,1.7,0.8C133.8,27.5,134.4,27.2,134.8,26.7z
		"/>
	<path d="M144.3,26.4c0.2,0,0.5,0,0.6,0c0.2,0,0.4,0,0.6,0c-0.2,0.7-0.6,1.2-1.1,1.6c-0.6,0.4-1.3,0.6-2.1,0.6
		c-1.1,0-1.9-0.4-2.5-1.1s-0.9-1.7-0.9-2.9c0-1.2,0.3-2.2,0.9-2.9c0.6-0.7,1.5-1.1,2.5-1.1c1,0,1.9,0.3,2.5,1
		c0.6,0.7,0.9,1.6,0.9,2.8v0.5h-5.6V25c0,0.8,0.2,1.4,0.6,1.8c0.4,0.4,0.9,0.7,1.6,0.7c0.5,0,0.9-0.1,1.2-0.3
		C143.9,27,144.1,26.8,144.3,26.4z M140.7,22.3c-0.4,0.4-0.6,1-0.7,1.6h4.3c0-0.7-0.2-1.2-0.6-1.6c-0.4-0.4-0.9-0.6-1.5-0.6
		C141.6,21.7,141.1,21.9,140.7,22.3z"/>
	<path d="M148.1,28.4c0-1,0-1.9,0-2.7s0-1.5,0-2.3s0-1.7,0-2.7h1.2v1.1h0.1c0.1-0.4,0.4-0.7,0.8-0.9c0.4-0.2,0.9-0.4,1.4-0.4
		c0.1,0,0.2,0,0.3,0c0.1,0,0.2,0,0.3,0v1.2c0,0-0.2,0-0.3,0c-0.2,0-0.3,0-0.5,0c-0.6,0-1.1,0.2-1.5,0.5s-0.6,0.8-0.6,1.3v4.8H148.1z
		"/>
</g>
</svg>
